<svg xmlns="http://www.w3.org/2000/svg" xmlns:xlink="http://www.w3.org/1999/xlink" width="500" zoomAndPan="magnify" viewBox="0 0 375 374.999991" height="500" preserveAspectRatio="xMidYMid meet" version="1.0"><defs><g/><clipPath id="d73a2b7da7"><path d="M 110 148 L 265.75 148 L 265.75 192 L 110 192 Z M 110 148 " clip-rule="nonzero"/></clipPath><clipPath id="6d8f898e4e"><path d="M 165 70.050781 L 183 70.050781 L 183 95 L 165 95 Z M 165 70.050781 " clip-rule="nonzero"/></clipPath></defs><rect x="-37.5" width="450" fill="#ffffff" y="-37.499999" height="449.999989" fill-opacity="1"/><rect x="-37.5" width="450" fill="#ffffff" y="-37.499999" height="449.999989" fill-opacity="1"/><path fill="#fc71a6" d="M 174.886719 96.082031 C 174.886719 96.082031 164.886719 107.683594 173.554688 113.949219 C 182.222656 120.214844 196.746094 113.128906 195.421875 104.347656 C 194.097656 95.566406 180.753906 93.28125 174.886719 96.082031 Z M 174.886719 96.082031 " fill-opacity="1" fill-rule="evenodd"/><path fill="#cf477f" d="M 246.355469 179.949219 C 246.355469 179.949219 225.285156 207.679688 220.351562 229.144531 C 216.21875 232.613281 149.417969 237.015625 149.417969 237.015625 C 149.417969 237.015625 163.820312 190.746094 246.355469 179.949219 Z M 246.355469 179.949219 " fill-opacity="1" fill-rule="evenodd"/><path fill="#fc71a6" d="M 159.5 184.398438 C 191.210938 176.027344 213.863281 122.808594 254.269531 161.003906 C 254.269531 161.003906 235.050781 159.589844 233.3125 161.050781 C 231.582031 162.515625 186.199219 179.210938 183.589844 179.445312 C 180.980469 179.675781 159.5 184.398438 159.5 184.398438 Z M 159.5 184.398438 " fill-opacity="1" fill-rule="evenodd"/><path fill="#fc71a6" d="M 148.726562 170.339844 C 178.585938 156.769531 203.105469 98.683594 237.976562 137.445312 C 237.976562 137.445312 224.753906 134.949219 223.285156 136.679688 C 221.820312 138.414062 174.753906 162.546875 172.222656 163.214844 C 169.6875 163.878906 148.726562 170.339844 148.726562 170.339844 Z M 148.726562 170.339844 " fill-opacity="1" fill-rule="evenodd"/><g clip-path="url(#d73a2b7da7)"><path fill="#211717" d="M 133.503906 148.953125 C 133.433594 148.992188 108.164062 162.449219 122.464844 179.210938 C 135.023438 193.929688 162.074219 183.792969 182.707031 176.058594 C 190.878906 172.996094 199.089844 170.308594 207.304688 167.394531 C 226.789062 160.480469 260.839844 142.722656 265.847656 174.753906 C 262.339844 152.761719 220.558594 169.921875 209.570312 173.820312 C 201.390625 176.71875 193.214844 179.382812 185.078125 182.429688 C 97.5625 215.234375 97 153.472656 133.503906 148.953125 Z M 133.503906 148.953125 " fill-opacity="1" fill-rule="nonzero"/></g><path fill="#211717" d="M 249.460938 153.117188 C 249.421875 153.0625 235.738281 135.0625 216.210938 141.96875 C 208.53125 144.683594 198.351562 150.972656 187.707031 157.546875 C 171.789062 167.378906 150.933594 184.238281 130.757812 173.234375 C 141.132812 176.496094 165.992188 162.96875 184.132812 151.761719 C 195.125 144.972656 205.632812 138.480469 213.941406 135.542969 C 227.960938 130.582031 243.941406 135.410156 249.460938 153.117188 Z M 249.460938 153.117188 " fill-opacity="1" fill-rule="nonzero"/><path fill="#211717" d="M 233.515625 127.609375 C 233.460938 127.554688 214.472656 108.808594 193.074219 124.4375 C 183.5 131.429688 175.621094 138.484375 168.882812 144.515625 C 161.5625 151.066406 147.6875 160.382812 138.796875 156.890625 C 144.816406 155.660156 154.976562 147.84375 164.351562 139.449219 C 171.191406 133.324219 179.191406 126.164062 189.074219 118.945312 C 203.4375 108.449219 225.757812 109.679688 233.515625 127.609375 Z M 233.515625 127.609375 " fill-opacity="1" fill-rule="nonzero"/><path fill="#211717" d="M 182.167969 124.257812 C 208.496094 100.078125 166.574219 84.910156 164.664062 114.597656 C 152.539062 79.1875 225.539062 83.867188 187.175781 128.847656 Z M 182.167969 124.257812 " fill-opacity="1" fill-rule="nonzero"/><path fill="#211717" d="M 255.21875 175.824219 C 255.21875 175.824219 236.550781 214.222656 233.351562 243.023438 C 233.351562 243.023438 175.75 250.492188 146.949219 243.023438 C 146.949219 243.023438 135.195312 217.671875 134.949219 196.359375 C 134.949219 196.359375 146.816406 231.957031 151.882812 235.15625 C 160.28125 236.089844 210.28125 239.15625 226.285156 234.355469 C 231.882812 215.023438 236.550781 200.890625 255.21875 175.824219 Z M 255.21875 175.824219 " fill-opacity="1" fill-rule="evenodd"/><path fill="#211717" d="M 178.957031 239.941406 C 174.421875 233.566406 166.292969 196.472656 166.292969 196.472656 C 165.226562 208.875 172.15625 240.472656 172.15625 240.472656 Z M 178.957031 239.941406 " fill-opacity="1" fill-rule="evenodd"/><path fill="#211717" d="M 200.824219 240.074219 C 200.824219 240.074219 207.222656 196.210938 216.425781 179.410156 C 216.425781 179.410156 206.023438 229.144531 207.488281 241.808594 L 202.355469 242.140625 Z M 200.824219 240.074219 " fill-opacity="1" fill-rule="evenodd"/><g clip-path="url(#6d8f898e4e)"><path fill="#211717" d="M 165.984375 74.71875 C 164.96875 73.742188 164.9375 72.125 165.914062 71.109375 C 166.890625 70.09375 168.507812 70.0625 169.523438 71.039062 C 169.550781 71.066406 179.773438 81.011719 182.621094 91.550781 C 182.988281 92.914062 182.175781 94.316406 180.8125 94.683594 C 179.449219 95.046875 178.046875 94.238281 177.683594 92.871094 C 175.199219 83.679688 166.011719 74.746094 165.984375 74.71875 Z M 165.984375 74.71875 " fill-opacity="1" fill-rule="nonzero"/></g><g fill="#ea558e" fill-opacity="1"><g transform="translate(125.249996, 284.622286)"><g><path d="M 22.640625 -6.59375 L 23.6875 -5.609375 C 20.375 -1.296875 16.382812 0.859375 11.71875 0.859375 C 8.664062 0.859375 6.085938 -0.128906 3.984375 -2.109375 C 2.960938 -3.054688 2.15625 -4.265625 1.5625 -5.734375 C 0.96875 -7.210938 0.671875 -8.898438 0.671875 -10.796875 C 0.671875 -12.691406 1.03125 -14.664062 1.75 -16.71875 C 2.46875 -18.769531 3.460938 -20.671875 4.734375 -22.421875 C 6.003906 -24.171875 7.457031 -25.734375 9.09375 -27.109375 C 10.726562 -28.492188 12.53125 -29.582031 14.5 -30.375 C 16.46875 -31.175781 18.535156 -31.578125 20.703125 -31.578125 C 22.878906 -31.578125 24.765625 -30.882812 26.359375 -29.5 C 27.953125 -28.113281 28.75 -26.171875 28.75 -23.671875 C 28.75 -22.191406 28.410156 -20.640625 27.734375 -19.015625 C 27.054688 -17.390625 26.179688 -15.914062 25.109375 -14.59375 C 24.035156 -13.269531 22.765625 -12.175781 21.296875 -11.3125 C 19.835938 -10.457031 18.382812 -10.03125 16.9375 -10.03125 C 15.5 -10.03125 14.351562 -10.492188 13.5 -11.421875 C 12.65625 -12.359375 12.234375 -13.445312 12.234375 -14.6875 C 12.234375 -16.820312 13.117188 -18.882812 14.890625 -20.875 C 16.671875 -22.863281 18.957031 -24.335938 21.75 -25.296875 L 22.25 -24.125 C 20.84375 -23.65625 19.519531 -22.875 18.28125 -21.78125 C 17.039062 -20.6875 16.070312 -19.515625 15.375 -18.265625 C 14.6875 -17.023438 14.34375 -15.941406 14.34375 -15.015625 C 14.34375 -13.109375 15.40625 -12.15625 17.53125 -12.15625 C 19.019531 -12.15625 20.515625 -12.8125 22.015625 -14.125 C 23.515625 -15.4375 24.710938 -16.976562 25.609375 -18.75 C 26.503906 -20.53125 26.953125 -22.238281 26.953125 -23.875 C 26.953125 -25.519531 26.394531 -26.863281 25.28125 -27.90625 C 24.175781 -28.945312 22.703125 -29.46875 20.859375 -29.46875 C 19.023438 -29.46875 17.132812 -28.910156 15.1875 -27.796875 C 13.25 -26.691406 11.53125 -25.269531 10.03125 -23.53125 C 8.539062 -21.800781 7.316406 -19.804688 6.359375 -17.546875 C 5.398438 -15.296875 4.921875 -13.082031 4.921875 -10.90625 C 4.921875 -7.382812 6.097656 -4.800781 8.453125 -3.15625 C 9.828125 -2.1875 11.382812 -1.703125 13.125 -1.703125 C 14.875 -1.703125 16.59375 -2.128906 18.28125 -2.984375 C 19.976562 -3.835938 21.429688 -5.039062 22.640625 -6.59375 Z M 22.640625 -6.59375 "/></g></g></g><g fill="#ea558e" fill-opacity="1"><g transform="translate(151.827547, 284.622286)"><g><path d="M 12.109375 -12.75 L 15.53125 -12.75 L 13.796875 -6.203125 C 13.515625 -5.273438 13.375 -4.4375 13.375 -3.6875 C 13.375 -2.9375 13.503906 -2.5625 13.765625 -2.5625 C 14.035156 -2.5625 14.398438 -2.789062 14.859375 -3.25 C 15.316406 -3.707031 15.707031 -4.171875 16.03125 -4.640625 L 16.53125 -5.34375 L 17.46875 -4.46875 C 16.988281 -3.53125 16.378906 -2.675781 15.640625 -1.90625 C 14.191406 -0.40625 12.9375 0.34375 11.875 0.34375 C 10.613281 0.34375 9.984375 -0.625 9.984375 -2.5625 C 9.984375 -2.882812 10 -3.125 10.03125 -3.28125 C 9.8125 -2.539062 9.394531 -1.882812 8.78125 -1.3125 C 7.613281 -0.207031 6.296875 0.34375 4.828125 0.34375 C 3.359375 0.34375 2.179688 -0.15625 1.296875 -1.15625 C 0.421875 -2.15625 -0.015625 -3.40625 -0.015625 -4.90625 C -0.015625 -7.238281 0.738281 -9.207031 2.25 -10.8125 C 3.769531 -12.414062 5.550781 -13.21875 7.59375 -13.21875 C 8.613281 -13.21875 9.457031 -12.9375 10.125 -12.375 C 10.800781 -11.820312 11.242188 -11.09375 11.453125 -10.1875 Z M 8.453125 -11.34375 C 7.609375 -11.34375 6.816406 -10.988281 6.078125 -10.28125 C 5.335938 -9.570312 4.769531 -8.71875 4.375 -7.71875 C 3.976562 -6.71875 3.78125 -5.742188 3.78125 -4.796875 C 3.78125 -3.847656 3.988281 -3.082031 4.40625 -2.5 C 4.820312 -1.914062 5.460938 -1.625 6.328125 -1.625 C 7.203125 -1.625 7.988281 -2.015625 8.6875 -2.796875 C 10.019531 -4.316406 10.6875 -6.117188 10.6875 -8.203125 C 10.6875 -10.296875 9.941406 -11.34375 8.453125 -11.34375 Z M 8.453125 -11.34375 "/></g></g></g><g fill="#ea558e" fill-opacity="1"><g transform="translate(170.458104, 284.622286)"><g><path d="M 8.140625 -29.125 L 11.6875 -29.125 C 11.0625 -28.039062 10.097656 -25.640625 8.796875 -21.921875 C 7.503906 -18.210938 6.320312 -14.476562 5.25 -10.71875 C 4.175781 -6.957031 3.640625 -4.65625 3.640625 -3.8125 C 3.640625 -2.976562 3.738281 -2.5625 3.9375 -2.5625 C 4.550781 -2.5625 5.507812 -3.488281 6.8125 -5.34375 L 7.734375 -4.46875 C 7.085938 -3.351562 6.394531 -2.421875 5.65625 -1.671875 C 4.332031 -0.328125 3.265625 0.34375 2.453125 0.34375 C 0.960938 0.34375 0.21875 -0.550781 0.21875 -2.34375 C 0.21875 -5.007812 1.101562 -9.21875 2.875 -14.96875 C 4.65625 -20.726562 6.410156 -25.445312 8.140625 -29.125 Z M 8.140625 -29.125 "/></g></g></g><g fill="#ea558e" fill-opacity="1"><g transform="translate(179.346478, 284.622286)"><g><path d="M 5.953125 -2.109375 C 7.191406 -2.109375 8.445312 -2.546875 9.71875 -3.421875 C 10.988281 -4.296875 12.003906 -5.316406 12.765625 -6.484375 C 13.523438 -7.660156 13.90625 -8.710938 13.90625 -9.640625 C 13.8125 -9.515625 13.488281 -9.453125 12.9375 -9.453125 C 12.394531 -9.453125 11.957031 -9.628906 11.625 -9.984375 C 11.289062 -10.347656 11.125 -10.78125 11.125 -11.28125 C 11.125 -11.789062 11.3125 -12.238281 11.6875 -12.625 C 12.070312 -13.019531 12.597656 -13.21875 13.265625 -13.21875 C 15.117188 -13.21875 16.046875 -12.207031 16.046875 -10.1875 C 16.046875 -9.257812 15.757812 -8.203125 15.1875 -7.015625 C 14.625 -5.835938 13.847656 -4.691406 12.859375 -3.578125 C 11.878906 -2.472656 10.609375 -1.539062 9.046875 -0.78125 C 7.492188 -0.03125 5.851562 0.34375 4.125 0.34375 C 2.394531 0.34375 1.53125 -0.492188 1.53125 -2.171875 C 1.53125 -3.117188 1.800781 -4.40625 2.34375 -6.03125 C 2.894531 -7.65625 3.171875 -8.691406 3.171875 -9.140625 C 3.171875 -9.597656 3.039062 -9.828125 2.78125 -9.828125 C 2.382812 -9.828125 1.601562 -8.878906 0.4375 -6.984375 L -0.984375 -7.796875 C 1.160156 -11.410156 3.128906 -13.21875 4.921875 -13.21875 C 5.410156 -13.21875 5.832031 -13.039062 6.1875 -12.6875 C 6.539062 -12.332031 6.71875 -11.75 6.71875 -10.9375 C 6.71875 -10.125 6.425781 -8.628906 5.84375 -6.453125 C 5.257812 -4.285156 4.96875 -3.132812 4.96875 -3 C 4.96875 -2.40625 5.296875 -2.109375 5.953125 -2.109375 Z M 5.953125 -2.109375 "/></g></g></g><g fill="#ea558e" fill-opacity="1"><g transform="translate(196.882407, 284.622286)"><g><path d="M 12.109375 -12.75 L 15.53125 -12.75 L 13.796875 -6.203125 C 13.515625 -5.273438 13.375 -4.4375 13.375 -3.6875 C 13.375 -2.9375 13.503906 -2.5625 13.765625 -2.5625 C 14.035156 -2.5625 14.398438 -2.789062 14.859375 -3.25 C 15.316406 -3.707031 15.707031 -4.171875 16.03125 -4.640625 L 16.53125 -5.34375 L 17.46875 -4.46875 C 16.988281 -3.53125 16.378906 -2.675781 15.640625 -1.90625 C 14.191406 -0.40625 12.9375 0.34375 11.875 0.34375 C 10.613281 0.34375 9.984375 -0.625 9.984375 -2.5625 C 9.984375 -2.882812 10 -3.125 10.03125 -3.28125 C 9.8125 -2.539062 9.394531 -1.882812 8.78125 -1.3125 C 7.613281 -0.207031 6.296875 0.34375 4.828125 0.34375 C 3.359375 0.34375 2.179688 -0.15625 1.296875 -1.15625 C 0.421875 -2.15625 -0.015625 -3.40625 -0.015625 -4.90625 C -0.015625 -7.238281 0.738281 -9.207031 2.25 -10.8125 C 3.769531 -12.414062 5.550781 -13.21875 7.59375 -13.21875 C 8.613281 -13.21875 9.457031 -12.9375 10.125 -12.375 C 10.800781 -11.820312 11.242188 -11.09375 11.453125 -10.1875 Z M 8.453125 -11.34375 C 7.609375 -11.34375 6.816406 -10.988281 6.078125 -10.28125 C 5.335938 -9.570312 4.769531 -8.71875 4.375 -7.71875 C 3.976562 -6.71875 3.78125 -5.742188 3.78125 -4.796875 C 3.78125 -3.847656 3.988281 -3.082031 4.40625 -2.5 C 4.820312 -1.914062 5.460938 -1.625 6.328125 -1.625 C 7.203125 -1.625 7.988281 -2.015625 8.6875 -2.796875 C 10.019531 -4.316406 10.6875 -6.117188 10.6875 -8.203125 C 10.6875 -10.296875 9.941406 -11.34375 8.453125 -11.34375 Z M 8.453125 -11.34375 "/></g></g></g><g fill="#ea558e" fill-opacity="1"><g transform="translate(215.512964, 284.622286)"><g><path d="M 12.015625 -10.359375 C 11.460938 -10.359375 10.804688 -10.003906 10.046875 -9.296875 C 9.285156 -8.585938 8.550781 -7.722656 7.84375 -6.703125 C 6.695312 -5.066406 5.535156 -3.179688 4.359375 -1.046875 L 3.765625 0 L 0.671875 0 C 0.671875 0 0.898438 -0.6875 1.359375 -2.0625 C 2.628906 -5.851562 3.265625 -8.101562 3.265625 -8.8125 C 3.265625 -9.519531 3.144531 -9.875 2.90625 -9.875 C 2.488281 -9.875 1.988281 -9.367188 1.40625 -8.359375 C 1.269531 -8.128906 1.15625 -7.941406 1.0625 -7.796875 C 0.976562 -7.660156 0.878906 -7.492188 0.765625 -7.296875 C 0.660156 -7.097656 0.59375 -6.976562 0.5625 -6.9375 L -0.890625 -7.796875 C 0.242188 -9.648438 1.285156 -11.015625 2.234375 -11.890625 C 3.179688 -12.773438 4.148438 -13.21875 5.140625 -13.21875 C 5.597656 -13.21875 5.988281 -13.03125 6.3125 -12.65625 C 6.644531 -12.28125 6.8125 -11.832031 6.8125 -11.3125 C 6.8125 -10.789062 6.78125 -10.328125 6.71875 -9.921875 C 6.664062 -9.523438 6.601562 -9.160156 6.53125 -8.828125 C 6.457031 -8.492188 6.351562 -8.09375 6.21875 -7.625 C 6.082031 -7.15625 5.972656 -6.796875 5.890625 -6.546875 C 5.816406 -6.296875 5.710938 -5.957031 5.578125 -5.53125 C 5.453125 -5.113281 5.375 -4.867188 5.34375 -4.796875 C 5.601562 -5.316406 6.046875 -6.085938 6.671875 -7.109375 C 7.304688 -8.140625 7.71875 -8.785156 7.90625 -9.046875 C 8.09375 -9.304688 8.351562 -9.65625 8.6875 -10.09375 C 9.03125 -10.53125 9.328125 -10.867188 9.578125 -11.109375 C 9.835938 -11.347656 10.144531 -11.625 10.5 -11.9375 C 10.851562 -12.257812 11.191406 -12.5 11.515625 -12.65625 C 12.335938 -13.03125 13.125 -13.21875 13.875 -13.21875 C 14.632812 -13.21875 15.242188 -12.992188 15.703125 -12.546875 C 16.171875 -12.109375 16.40625 -11.59375 16.40625 -11 C 16.40625 -10.40625 16.21875 -9.882812 15.84375 -9.4375 C 15.46875 -9 15.035156 -8.78125 14.546875 -8.78125 C 14.054688 -8.78125 13.671875 -8.863281 13.390625 -9.03125 C 13.117188 -9.195312 12.929688 -9.375 12.828125 -9.5625 C 12.523438 -10.09375 12.253906 -10.359375 12.015625 -10.359375 Z M 12.015625 -10.359375 "/></g></g></g><g fill="#ea558e" fill-opacity="1"><g transform="translate(232.238869, 284.622286)"><g><path d="M 1.03125 -7.578125 L -0.390625 -8.4375 C 0.335938 -9.695312 1.242188 -10.804688 2.328125 -11.765625 C 3.421875 -12.734375 4.394531 -13.21875 5.25 -13.21875 C 6.65625 -13.21875 7.359375 -12.59375 7.359375 -11.34375 C 7.359375 -10.8125 6.992188 -9.53125 6.265625 -7.5 C 5.546875 -5.476562 5.1875 -4.195312 5.1875 -3.65625 C 5.1875 -3.113281 5.222656 -2.765625 5.296875 -2.609375 C 5.367188 -2.460938 5.53125 -2.390625 5.78125 -2.390625 C 7.101562 -2.390625 8.46875 -2.890625 9.875 -3.890625 C 11.289062 -4.890625 12.210938 -5.992188 12.640625 -7.203125 L 14.171875 -11.671875 C 14.328125 -12.117188 14.570312 -12.472656 14.90625 -12.734375 C 15.25 -13.003906 15.578125 -13.140625 15.890625 -13.140625 C 16.203125 -13.140625 16.457031 -13.035156 16.65625 -12.828125 C 16.851562 -12.628906 16.953125 -12.359375 16.953125 -12.015625 C 16.953125 -11.679688 16.882812 -11.332031 16.75 -10.96875 L 15.09375 -6.109375 C 14.164062 -3.242188 12.738281 -0.425781 10.8125 2.34375 C 12.488281 2.519531 13.988281 2.816406 15.3125 3.234375 L 15.125 4.46875 C 13.113281 4.0625 11.332031 3.820312 9.78125 3.75 C 8.363281 5.570312 6.914062 7.023438 5.4375 8.109375 C 3.957031 9.203125 2.664062 9.75 1.5625 9.75 C 0.457031 9.75 -0.363281 9.523438 -0.90625 9.078125 C -1.457031 8.628906 -1.734375 8.019531 -1.734375 7.25 C -1.734375 6.476562 -1.441406 5.773438 -0.859375 5.140625 C -0.273438 4.503906 0.503906 3.988281 1.484375 3.59375 C 3.472656 2.769531 5.753906 2.300781 8.328125 2.1875 C 8.523438 1.957031 9.007812 1.140625 9.78125 -0.265625 C 10.5625 -1.679688 10.976562 -2.570312 11.03125 -2.9375 C 8.445312 -0.75 6.171875 0.34375 4.203125 0.34375 C 3.398438 0.34375 2.816406 0.0703125 2.453125 -0.46875 C 2.085938 -1.019531 1.90625 -1.695312 1.90625 -2.5 C 1.90625 -3.300781 2.207031 -4.675781 2.8125 -6.625 C 3.414062 -8.570312 3.71875 -9.679688 3.71875 -9.953125 C 3.71875 -10.222656 3.65625 -10.359375 3.53125 -10.359375 C 3.40625 -10.359375 3.269531 -10.320312 3.125 -10.25 C 2.976562 -10.1875 2.835938 -10.085938 2.703125 -9.953125 C 2.566406 -9.816406 2.4375 -9.6875 2.3125 -9.5625 C 2.195312 -9.4375 2.070312 -9.265625 1.9375 -9.046875 C 1.800781 -8.828125 1.695312 -8.660156 1.625 -8.546875 C 1.3125 -8.054688 1.113281 -7.734375 1.03125 -7.578125 Z M 7.359375 3.75 C 6.171875 3.820312 4.96875 4.03125 3.75 4.375 C 1.382812 5.050781 0.203125 5.84375 0.203125 6.75 C 0.203125 7.28125 0.535156 7.546875 1.203125 7.546875 C 1.878906 7.546875 2.972656 7.0625 4.484375 6.09375 C 6.003906 5.125 6.960938 4.34375 7.359375 3.75 Z M 7.359375 3.75 "/></g></g></g><g fill="#ea558e" fill-opacity="1"><g transform="translate(115.242547, 307.205898)"><g><path d="M 0.5 -4.3125 C 0.5 -4.832031 0.585938 -5.34375 0.765625 -5.84375 C 0.953125 -6.351562 1.21875 -6.804688 1.5625 -7.203125 C 1.90625 -7.609375 2.328125 -7.9375 2.828125 -8.1875 C 3.335938 -8.4375 3.910156 -8.5625 4.546875 -8.5625 C 5.304688 -8.5625 5.957031 -8.390625 6.5 -8.046875 C 7.039062 -7.703125 7.4375 -7.253906 7.6875 -6.703125 L 7.03125 -6.296875 C 6.894531 -6.578125 6.726562 -6.8125 6.53125 -7 C 6.332031 -7.195312 6.117188 -7.351562 5.890625 -7.46875 C 5.671875 -7.59375 5.441406 -7.679688 5.203125 -7.734375 C 4.960938 -7.785156 4.726562 -7.8125 4.5 -7.8125 C 3.988281 -7.8125 3.535156 -7.707031 3.140625 -7.5 C 2.753906 -7.289062 2.425781 -7.019531 2.15625 -6.6875 C 1.882812 -6.351562 1.679688 -5.972656 1.546875 -5.546875 C 1.410156 -5.128906 1.34375 -4.703125 1.34375 -4.265625 C 1.34375 -3.796875 1.425781 -3.34375 1.59375 -2.90625 C 1.757812 -2.476562 1.984375 -2.097656 2.265625 -1.765625 C 2.546875 -1.429688 2.878906 -1.164062 3.265625 -0.96875 C 3.660156 -0.78125 4.082031 -0.6875 4.53125 -0.6875 C 4.769531 -0.6875 5.015625 -0.710938 5.265625 -0.765625 C 5.523438 -0.828125 5.769531 -0.925781 6 -1.0625 C 6.238281 -1.195312 6.457031 -1.359375 6.65625 -1.546875 C 6.851562 -1.742188 7.019531 -1.984375 7.15625 -2.265625 L 7.859375 -1.90625 C 7.722656 -1.582031 7.53125 -1.300781 7.28125 -1.0625 C 7.03125 -0.820312 6.753906 -0.613281 6.453125 -0.4375 C 6.148438 -0.269531 5.828125 -0.140625 5.484375 -0.046875 C 5.148438 0.0351562 4.816406 0.078125 4.484375 0.078125 C 3.898438 0.078125 3.363281 -0.0507812 2.875 -0.3125 C 2.382812 -0.570312 1.960938 -0.90625 1.609375 -1.3125 C 1.265625 -1.726562 0.992188 -2.195312 0.796875 -2.71875 C 0.597656 -3.238281 0.5 -3.769531 0.5 -4.3125 Z M 0.5 -4.3125 "/></g></g></g><g fill="#ea558e" fill-opacity="1"><g transform="translate(127.49844, 307.205898)"><g><path d="M 4.53125 -0.703125 C 5.0625 -0.703125 5.503906 -0.800781 5.859375 -1 C 6.210938 -1.207031 6.492188 -1.472656 6.703125 -1.796875 C 6.921875 -2.128906 7.070312 -2.507812 7.15625 -2.9375 C 7.238281 -3.363281 7.28125 -3.789062 7.28125 -4.21875 L 7.28125 -8.515625 L 8.125 -8.515625 L 8.125 -4.21875 C 8.125 -3.644531 8.054688 -3.097656 7.921875 -2.578125 C 7.796875 -2.066406 7.59375 -1.613281 7.3125 -1.21875 C 7.03125 -0.832031 6.660156 -0.519531 6.203125 -0.28125 C 5.742188 -0.0507812 5.1875 0.0625 4.53125 0.0625 C 3.863281 0.0625 3.296875 -0.0546875 2.828125 -0.296875 C 2.367188 -0.546875 2 -0.867188 1.71875 -1.265625 C 1.445312 -1.671875 1.25 -2.128906 1.125 -2.640625 C 1.007812 -3.148438 0.953125 -3.675781 0.953125 -4.21875 L 0.953125 -8.515625 L 1.78125 -8.515625 L 1.78125 -4.21875 C 1.78125 -3.769531 1.820312 -3.332031 1.90625 -2.90625 C 2 -2.488281 2.148438 -2.113281 2.359375 -1.78125 C 2.566406 -1.457031 2.847656 -1.195312 3.203125 -1 C 3.554688 -0.800781 4 -0.703125 4.53125 -0.703125 Z M 4.53125 -0.703125 "/></g></g></g><g fill="#ea558e" fill-opacity="1"><g transform="translate(140.581524, 307.205898)"><g><path d="M 6.046875 -6.921875 C 5.804688 -7.191406 5.484375 -7.410156 5.078125 -7.578125 C 4.679688 -7.753906 4.226562 -7.84375 3.71875 -7.84375 C 2.96875 -7.84375 2.421875 -7.695312 2.078125 -7.40625 C 1.734375 -7.125 1.5625 -6.738281 1.5625 -6.25 C 1.5625 -6 1.609375 -5.789062 1.703125 -5.625 C 1.796875 -5.457031 1.9375 -5.3125 2.125 -5.1875 C 2.3125 -5.070312 2.554688 -4.96875 2.859375 -4.875 C 3.160156 -4.789062 3.515625 -4.707031 3.921875 -4.625 C 4.378906 -4.519531 4.789062 -4.40625 5.15625 -4.28125 C 5.519531 -4.164062 5.828125 -4.019531 6.078125 -3.84375 C 6.335938 -3.664062 6.535156 -3.445312 6.671875 -3.1875 C 6.804688 -2.9375 6.875 -2.617188 6.875 -2.234375 C 6.875 -1.835938 6.796875 -1.492188 6.640625 -1.203125 C 6.492188 -0.921875 6.285156 -0.679688 6.015625 -0.484375 C 5.742188 -0.296875 5.414062 -0.15625 5.03125 -0.0625 C 4.65625 0.03125 4.242188 0.078125 3.796875 0.078125 C 2.484375 0.078125 1.347656 -0.332031 0.390625 -1.15625 L 0.796875 -1.84375 C 0.953125 -1.6875 1.132812 -1.535156 1.34375 -1.390625 C 1.5625 -1.242188 1.800781 -1.117188 2.0625 -1.015625 C 2.320312 -0.910156 2.597656 -0.828125 2.890625 -0.765625 C 3.191406 -0.703125 3.503906 -0.671875 3.828125 -0.671875 C 4.503906 -0.671875 5.03125 -0.789062 5.40625 -1.03125 C 5.789062 -1.28125 5.984375 -1.648438 5.984375 -2.140625 C 5.984375 -2.410156 5.925781 -2.632812 5.8125 -2.8125 C 5.707031 -2.988281 5.546875 -3.144531 5.328125 -3.28125 C 5.117188 -3.414062 4.851562 -3.53125 4.53125 -3.625 C 4.21875 -3.71875 3.847656 -3.8125 3.421875 -3.90625 C 2.972656 -4.007812 2.578125 -4.117188 2.234375 -4.234375 C 1.898438 -4.347656 1.617188 -4.488281 1.390625 -4.65625 C 1.160156 -4.820312 0.988281 -5.019531 0.875 -5.25 C 0.757812 -5.488281 0.703125 -5.78125 0.703125 -6.125 C 0.703125 -6.519531 0.773438 -6.867188 0.921875 -7.171875 C 1.066406 -7.484375 1.273438 -7.738281 1.546875 -7.9375 C 1.816406 -8.144531 2.132812 -8.300781 2.5 -8.40625 C 2.875 -8.519531 3.285156 -8.578125 3.734375 -8.578125 C 4.296875 -8.578125 4.800781 -8.488281 5.25 -8.3125 C 5.695312 -8.144531 6.097656 -7.90625 6.453125 -7.59375 Z M 6.046875 -6.921875 "/></g></g></g><g fill="#ea558e" fill-opacity="1"><g transform="translate(151.890349, 307.205898)"><g><path d="M 7.109375 -7.78125 L 4.078125 -7.78125 L 4.078125 0 L 3.234375 0 L 3.234375 -7.78125 L 0.203125 -7.78125 L 0.203125 -8.515625 L 7.109375 -8.515625 Z M 7.109375 -7.78125 "/></g></g></g><g fill="#ea558e" fill-opacity="1"><g transform="translate(163.235145, 307.205898)"><g><path d="M 4.5 0.0625 C 3.90625 0.0625 3.363281 -0.0546875 2.875 -0.296875 C 2.382812 -0.546875 1.960938 -0.875 1.609375 -1.28125 C 1.253906 -1.6875 0.976562 -2.144531 0.78125 -2.65625 C 0.59375 -3.175781 0.5 -3.710938 0.5 -4.265625 C 0.5 -4.828125 0.597656 -5.367188 0.796875 -5.890625 C 1.003906 -6.410156 1.289062 -6.867188 1.65625 -7.265625 C 2.019531 -7.671875 2.441406 -7.988281 2.921875 -8.21875 C 3.410156 -8.457031 3.941406 -8.578125 4.515625 -8.578125 C 5.109375 -8.578125 5.648438 -8.453125 6.140625 -8.203125 C 6.628906 -7.953125 7.046875 -7.617188 7.390625 -7.203125 C 7.742188 -6.796875 8.015625 -6.332031 8.203125 -5.8125 C 8.398438 -5.300781 8.5 -4.78125 8.5 -4.25 C 8.5 -3.675781 8.394531 -3.128906 8.1875 -2.609375 C 7.988281 -2.097656 7.707031 -1.640625 7.34375 -1.234375 C 6.988281 -0.835938 6.566406 -0.519531 6.078125 -0.28125 C 5.597656 -0.0507812 5.070312 0.0625 4.5 0.0625 Z M 1.34375 -4.265625 C 1.34375 -3.796875 1.414062 -3.347656 1.5625 -2.921875 C 1.71875 -2.492188 1.9375 -2.113281 2.21875 -1.78125 C 2.5 -1.445312 2.832031 -1.179688 3.21875 -0.984375 C 3.601562 -0.796875 4.03125 -0.703125 4.5 -0.703125 C 4.976562 -0.703125 5.410156 -0.800781 5.796875 -1 C 6.191406 -1.207031 6.523438 -1.476562 6.796875 -1.8125 C 7.078125 -2.15625 7.289062 -2.535156 7.4375 -2.953125 C 7.582031 -3.378906 7.65625 -3.816406 7.65625 -4.265625 C 7.65625 -4.722656 7.578125 -5.164062 7.421875 -5.59375 C 7.265625 -6.019531 7.046875 -6.394531 6.765625 -6.71875 C 6.484375 -7.050781 6.148438 -7.316406 5.765625 -7.515625 C 5.390625 -7.710938 4.96875 -7.8125 4.5 -7.8125 C 4.019531 -7.8125 3.582031 -7.707031 3.1875 -7.5 C 2.800781 -7.300781 2.46875 -7.03125 2.1875 -6.6875 C 1.914062 -6.351562 1.707031 -5.972656 1.5625 -5.546875 C 1.414062 -5.128906 1.34375 -4.703125 1.34375 -4.265625 Z M 1.34375 -4.265625 "/></g></g></g><g fill="#ea558e" fill-opacity="1"><g transform="translate(176.270279, 307.205898)"><g><path d="M 8.609375 0 L 8.609375 -7 L 5.515625 -1.578125 L 5.015625 -1.578125 L 1.90625 -7 L 1.90625 0 L 1.0625 0 L 1.0625 -8.515625 L 1.9375 -8.515625 L 5.25 -2.6875 L 8.609375 -8.515625 L 9.453125 -8.515625 L 9.453125 0 Z M 8.609375 0 "/></g></g></g><g fill="#ea558e" fill-opacity="1"><g transform="translate(190.815931, 307.205898)"><g/></g></g><g fill="#ea558e" fill-opacity="1"><g transform="translate(197.904899, 307.205898)"><g><path d="M 0.5 -4.3125 C 0.5 -4.832031 0.585938 -5.34375 0.765625 -5.84375 C 0.953125 -6.351562 1.21875 -6.804688 1.5625 -7.203125 C 1.90625 -7.609375 2.328125 -7.9375 2.828125 -8.1875 C 3.335938 -8.4375 3.910156 -8.5625 4.546875 -8.5625 C 5.304688 -8.5625 5.957031 -8.390625 6.5 -8.046875 C 7.039062 -7.703125 7.4375 -7.253906 7.6875 -6.703125 L 7.03125 -6.296875 C 6.894531 -6.578125 6.726562 -6.8125 6.53125 -7 C 6.332031 -7.195312 6.117188 -7.351562 5.890625 -7.46875 C 5.671875 -7.59375 5.441406 -7.679688 5.203125 -7.734375 C 4.960938 -7.785156 4.726562 -7.8125 4.5 -7.8125 C 3.988281 -7.8125 3.535156 -7.707031 3.140625 -7.5 C 2.753906 -7.289062 2.425781 -7.019531 2.15625 -6.6875 C 1.882812 -6.351562 1.679688 -5.972656 1.546875 -5.546875 C 1.410156 -5.128906 1.34375 -4.703125 1.34375 -4.265625 C 1.34375 -3.796875 1.425781 -3.34375 1.59375 -2.90625 C 1.757812 -2.476562 1.984375 -2.097656 2.265625 -1.765625 C 2.546875 -1.429688 2.878906 -1.164062 3.265625 -0.96875 C 3.660156 -0.78125 4.082031 -0.6875 4.53125 -0.6875 C 4.769531 -0.6875 5.015625 -0.710938 5.265625 -0.765625 C 5.523438 -0.828125 5.769531 -0.925781 6 -1.0625 C 6.238281 -1.195312 6.457031 -1.359375 6.65625 -1.546875 C 6.851562 -1.742188 7.019531 -1.984375 7.15625 -2.265625 L 7.859375 -1.90625 C 7.722656 -1.582031 7.53125 -1.300781 7.28125 -1.0625 C 7.03125 -0.820312 6.753906 -0.613281 6.453125 -0.4375 C 6.148438 -0.269531 5.828125 -0.140625 5.484375 -0.046875 C 5.148438 0.0351562 4.816406 0.078125 4.484375 0.078125 C 3.898438 0.078125 3.363281 -0.0507812 2.875 -0.3125 C 2.382812 -0.570312 1.960938 -0.90625 1.609375 -1.3125 C 1.265625 -1.726562 0.992188 -2.195312 0.796875 -2.71875 C 0.597656 -3.238281 0.5 -3.769531 0.5 -4.3125 Z M 0.5 -4.3125 "/></g></g></g><g fill="#ea558e" fill-opacity="1"><g transform="translate(210.160793, 307.205898)"><g><path d="M 3.703125 -8.515625 L 4.421875 -8.515625 L 7.953125 0 L 7.0625 0 L 5.96875 -2.65625 L 2.140625 -2.65625 L 1.046875 0 L 0.140625 0 Z M 5.765625 -3.328125 L 4.0625 -7.53125 L 2.3125 -3.328125 Z M 5.765625 -3.328125 "/></g></g></g><g fill="#ea558e" fill-opacity="1"><g transform="translate(222.296811, 307.205898)"><g><path d="M 1.0625 0 L 1.0625 -8.515625 L 1.90625 -8.515625 L 1.90625 -3.5625 L 6.59375 -8.515625 L 7.53125 -8.515625 L 4.046875 -4.78125 L 7.703125 0 L 6.78125 0 L 3.515625 -4.28125 L 1.90625 -2.609375 L 1.90625 0 Z M 1.0625 0 "/></g></g></g><g fill="#ea558e" fill-opacity="1"><g transform="translate(234.037213, 307.205898)"><g><path d="M 6.796875 -0.75 L 6.796875 0 L 1.0625 0 L 1.0625 -8.515625 L 6.6875 -8.515625 L 6.6875 -7.78125 L 1.90625 -7.78125 L 1.90625 -4.703125 L 6.078125 -4.703125 L 6.078125 -4 L 1.90625 -4 L 1.90625 -0.75 Z M 6.796875 -0.75 "/></g></g></g><g fill="#ea558e" fill-opacity="1"><g transform="translate(245.37001, 307.205898)"><g><path d="M 6.046875 -6.921875 C 5.804688 -7.191406 5.484375 -7.410156 5.078125 -7.578125 C 4.679688 -7.753906 4.226562 -7.84375 3.71875 -7.84375 C 2.96875 -7.84375 2.421875 -7.695312 2.078125 -7.40625 C 1.734375 -7.125 1.5625 -6.738281 1.5625 -6.25 C 1.5625 -6 1.609375 -5.789062 1.703125 -5.625 C 1.796875 -5.457031 1.9375 -5.3125 2.125 -5.1875 C 2.3125 -5.070312 2.554688 -4.96875 2.859375 -4.875 C 3.160156 -4.789062 3.515625 -4.707031 3.921875 -4.625 C 4.378906 -4.519531 4.789062 -4.40625 5.15625 -4.28125 C 5.519531 -4.164062 5.828125 -4.019531 6.078125 -3.84375 C 6.335938 -3.664062 6.535156 -3.445312 6.671875 -3.1875 C 6.804688 -2.9375 6.875 -2.617188 6.875 -2.234375 C 6.875 -1.835938 6.796875 -1.492188 6.640625 -1.203125 C 6.492188 -0.921875 6.285156 -0.679688 6.015625 -0.484375 C 5.742188 -0.296875 5.414062 -0.15625 5.03125 -0.0625 C 4.65625 0.03125 4.242188 0.078125 3.796875 0.078125 C 2.484375 0.078125 1.347656 -0.332031 0.390625 -1.15625 L 0.796875 -1.84375 C 0.953125 -1.6875 1.132812 -1.535156 1.34375 -1.390625 C 1.5625 -1.242188 1.800781 -1.117188 2.0625 -1.015625 C 2.320312 -0.910156 2.597656 -0.828125 2.890625 -0.765625 C 3.191406 -0.703125 3.503906 -0.671875 3.828125 -0.671875 C 4.503906 -0.671875 5.03125 -0.789062 5.40625 -1.03125 C 5.789062 -1.28125 5.984375 -1.648438 5.984375 -2.140625 C 5.984375 -2.410156 5.925781 -2.632812 5.8125 -2.8125 C 5.707031 -2.988281 5.546875 -3.144531 5.328125 -3.28125 C 5.117188 -3.414062 4.851562 -3.53125 4.53125 -3.625 C 4.21875 -3.71875 3.847656 -3.8125 3.421875 -3.90625 C 2.972656 -4.007812 2.578125 -4.117188 2.234375 -4.234375 C 1.898438 -4.347656 1.617188 -4.488281 1.390625 -4.65625 C 1.160156 -4.820312 0.988281 -5.019531 0.875 -5.25 C 0.757812 -5.488281 0.703125 -5.78125 0.703125 -6.125 C 0.703125 -6.519531 0.773438 -6.867188 0.921875 -7.171875 C 1.066406 -7.484375 1.273438 -7.738281 1.546875 -7.9375 C 1.816406 -8.144531 2.132812 -8.300781 2.5 -8.40625 C 2.875 -8.519531 3.285156 -8.578125 3.734375 -8.578125 C 4.296875 -8.578125 4.800781 -8.488281 5.25 -8.3125 C 5.695312 -8.144531 6.097656 -7.90625 6.453125 -7.59375 Z M 6.046875 -6.921875 "/></g></g></g><g fill="#ea558e" fill-opacity="1"><g transform="translate(256.68785, 307.205898)"><g/></g></g></svg>